<mxfile host="app.diagrams.net" agent="Mozilla/5.0 (Macintosh; Intel Mac OS X 10_15_7) AppleWebKit/537.36 (KHTML, like Gecko) Chrome/129.0.0.0 Safari/537.36" version="24.7.17">
  <diagram name="Page-1" id="-ZNgg70dU8ckIMXuFWyu">
    <mxGraphModel dx="1020" dy="564" grid="1" gridSize="10" guides="1" tooltips="1" connect="1" arrows="1" fold="1" page="1" pageScale="1" pageWidth="850" pageHeight="1100" math="0" shadow="0">
      <root>
        <mxCell id="0" />
        <mxCell id="1" parent="0" />
        <mxCell id="R-7eX2_hRQgn-cIn9q6u-2" value="" style="rounded=0;whiteSpace=wrap;html=1;rotation=90;" vertex="1" parent="1">
          <mxGeometry x="381.75" y="-156.88" width="240.75" height="636.5" as="geometry" />
        </mxCell>
        <mxCell id="R-7eX2_hRQgn-cIn9q6u-4" value="Website User" style="shape=umlActor;verticalLabelPosition=bottom;verticalAlign=top;html=1;outlineConnect=0;" vertex="1" parent="1">
          <mxGeometry x="53" y="40" width="50" height="100" as="geometry" />
        </mxCell>
        <mxCell id="R-7eX2_hRQgn-cIn9q6u-15" value="Administrator" style="shape=umlActor;verticalLabelPosition=bottom;verticalAlign=top;html=1;outlineConnect=0;" vertex="1" parent="1">
          <mxGeometry x="43" y="210" width="60" height="110" as="geometry" />
        </mxCell>
        <mxCell id="R-7eX2_hRQgn-cIn9q6u-17" value="" style="ellipse;whiteSpace=wrap;html=1;" vertex="1" parent="1">
          <mxGeometry x="220" y="105" width="120" height="80" as="geometry" />
        </mxCell>
        <mxCell id="R-7eX2_hRQgn-cIn9q6u-18" value="" style="ellipse;whiteSpace=wrap;html=1;" vertex="1" parent="1">
          <mxGeometry x="670" y="105" width="120" height="80" as="geometry" />
        </mxCell>
        <mxCell id="R-7eX2_hRQgn-cIn9q6u-20" value="" style="ellipse;whiteSpace=wrap;html=1;" vertex="1" parent="1">
          <mxGeometry x="450" y="105" width="120" height="80" as="geometry" />
        </mxCell>
        <mxCell id="R-7eX2_hRQgn-cIn9q6u-24" value="" style="endArrow=classic;html=1;rounded=0;exitX=1;exitY=0.3333333333333333;exitDx=0;exitDy=0;exitPerimeter=0;entryX=0;entryY=0.5;entryDx=0;entryDy=0;" edge="1" parent="1" source="R-7eX2_hRQgn-cIn9q6u-4" target="R-7eX2_hRQgn-cIn9q6u-17">
          <mxGeometry width="50" height="50" relative="1" as="geometry">
            <mxPoint x="243" y="375" as="sourcePoint" />
            <mxPoint x="243" y="145" as="targetPoint" />
          </mxGeometry>
        </mxCell>
        <mxCell id="R-7eX2_hRQgn-cIn9q6u-25" value="System" style="text;html=1;align=center;verticalAlign=middle;whiteSpace=wrap;rounded=0;" vertex="1" parent="1">
          <mxGeometry x="456.75" y="40" width="60" height="30" as="geometry" />
        </mxCell>
        <mxCell id="R-7eX2_hRQgn-cIn9q6u-26" value="User Story: Login/Authentication" style="text;html=1;align=center;verticalAlign=middle;whiteSpace=wrap;rounded=0;" vertex="1" parent="1">
          <mxGeometry x="397.13" width="210" height="30" as="geometry" />
        </mxCell>
        <mxCell id="R-7eX2_hRQgn-cIn9q6u-27" value="" style="endArrow=classic;html=1;rounded=0;exitX=1;exitY=0.3333333333333333;exitDx=0;exitDy=0;exitPerimeter=0;" edge="1" parent="1" source="R-7eX2_hRQgn-cIn9q6u-15">
          <mxGeometry width="50" height="50" relative="1" as="geometry">
            <mxPoint x="243" y="350" as="sourcePoint" />
            <mxPoint x="220" y="145" as="targetPoint" />
          </mxGeometry>
        </mxCell>
        <mxCell id="R-7eX2_hRQgn-cIn9q6u-28" value="Atlanta Food Finder User Login" style="text;html=1;align=center;verticalAlign=middle;whiteSpace=wrap;rounded=0;" vertex="1" parent="1">
          <mxGeometry x="230" y="130" width="100" height="30" as="geometry" />
        </mxCell>
        <mxCell id="R-7eX2_hRQgn-cIn9q6u-30" value="" style="endArrow=classic;html=1;rounded=0;exitX=1;exitY=0.5;exitDx=0;exitDy=0;entryX=0;entryY=0.5;entryDx=0;entryDy=0;" edge="1" parent="1" source="R-7eX2_hRQgn-cIn9q6u-17" target="R-7eX2_hRQgn-cIn9q6u-20">
          <mxGeometry relative="1" as="geometry">
            <mxPoint x="260" y="320" as="sourcePoint" />
            <mxPoint x="360" y="320" as="targetPoint" />
          </mxGeometry>
        </mxCell>
        <mxCell id="R-7eX2_hRQgn-cIn9q6u-31" value="Label" style="edgeLabel;resizable=0;html=1;;align=center;verticalAlign=middle;" connectable="0" vertex="1" parent="R-7eX2_hRQgn-cIn9q6u-30">
          <mxGeometry relative="1" as="geometry" />
        </mxCell>
        <mxCell id="R-7eX2_hRQgn-cIn9q6u-32" value="&amp;lt;&amp;lt;include&amp;gt;&amp;gt;" style="edgeLabel;html=1;align=center;verticalAlign=middle;resizable=0;points=[];" vertex="1" connectable="0" parent="R-7eX2_hRQgn-cIn9q6u-30">
          <mxGeometry x="-0.0285" relative="1" as="geometry">
            <mxPoint as="offset" />
          </mxGeometry>
        </mxCell>
        <mxCell id="R-7eX2_hRQgn-cIn9q6u-33" value="" style="endArrow=classic;html=1;rounded=0;exitX=1;exitY=0.5;exitDx=0;exitDy=0;entryX=0;entryY=0.5;entryDx=0;entryDy=0;" edge="1" parent="1" source="R-7eX2_hRQgn-cIn9q6u-20" target="R-7eX2_hRQgn-cIn9q6u-18">
          <mxGeometry relative="1" as="geometry">
            <mxPoint x="310" y="330" as="sourcePoint" />
            <mxPoint x="410" y="330" as="targetPoint" />
          </mxGeometry>
        </mxCell>
        <mxCell id="R-7eX2_hRQgn-cIn9q6u-34" value="&amp;lt;&amp;lt;extend&amp;gt;&amp;gt;" style="edgeLabel;resizable=0;html=1;;align=center;verticalAlign=middle;" connectable="0" vertex="1" parent="R-7eX2_hRQgn-cIn9q6u-33">
          <mxGeometry relative="1" as="geometry" />
        </mxCell>
        <mxCell id="R-7eX2_hRQgn-cIn9q6u-35" value="External Authentication System" style="text;html=1;align=center;verticalAlign=middle;whiteSpace=wrap;rounded=0;" vertex="1" parent="1">
          <mxGeometry x="480" y="130" width="60" height="30" as="geometry" />
        </mxCell>
        <mxCell id="R-7eX2_hRQgn-cIn9q6u-36" value="User Exists Verification" style="text;html=1;align=center;verticalAlign=middle;whiteSpace=wrap;rounded=0;" vertex="1" parent="1">
          <mxGeometry x="680" y="130" width="100" height="30" as="geometry" />
        </mxCell>
        <mxCell id="R-7eX2_hRQgn-cIn9q6u-38" value="" style="endArrow=none;html=1;rounded=0;exitX=1;exitY=0.3333333333333333;exitDx=0;exitDy=0;exitPerimeter=0;" edge="1" parent="1" source="R-7eX2_hRQgn-cIn9q6u-15">
          <mxGeometry width="50" height="50" relative="1" as="geometry">
            <mxPoint x="270" y="340" as="sourcePoint" />
            <mxPoint x="350" y="247" as="targetPoint" />
          </mxGeometry>
        </mxCell>
        <mxCell id="R-7eX2_hRQgn-cIn9q6u-39" value="" style="endArrow=classic;html=1;rounded=0;entryX=0.5;entryY=1;entryDx=0;entryDy=0;" edge="1" parent="1" target="R-7eX2_hRQgn-cIn9q6u-20">
          <mxGeometry width="50" height="50" relative="1" as="geometry">
            <mxPoint x="350" y="247" as="sourcePoint" />
            <mxPoint x="527.5" y="182.0000000000001" as="targetPoint" />
          </mxGeometry>
        </mxCell>
      </root>
    </mxGraphModel>
  </diagram>
</mxfile>
